<svg width="28" height="24" viewBox="0 0 28 24" fill="none" xmlns="http://www.w3.org/2000/svg">
<g clip-path="url(#clip0_907_697)">
<path d="M6.90718 19.2482C7.59825 18.7446 8.4929 18.6161 9.29647 18.9054C10.7161 19.4196 12.3072 19.7143 14 19.7143C20.6804 19.7143 25.1429 15.4018 25.1429 11.1429C25.1429 6.88393 20.6804 2.57143 14 2.57143C7.31968 2.57143 2.85718 6.88393 2.85718 11.1429C2.85718 12.8571 3.52147 14.5071 4.76968 15.9214C5.2304 16.4411 5.4554 17.1268 5.40183 17.8232C5.32683 18.7929 5.09647 19.6821 4.79647 20.4696C5.70718 20.0464 6.46254 19.575 6.90718 19.2536V19.2482ZM1.42147 21.4232C1.5179 21.2786 1.60897 21.1339 1.69468 20.9893C2.2304 20.1 2.73933 18.9321 2.84111 17.6196C1.23397 15.7929 0.285754 13.5589 0.285754 11.1429C0.285754 4.9875 6.42504 0 14 0C21.575 0 27.7143 4.9875 27.7143 11.1429C27.7143 17.2982 21.575 22.2857 14 22.2857C12.0125 22.2857 10.1268 21.9429 8.42325 21.3268C7.78575 21.7929 6.74647 22.4304 5.51433 22.9661C4.7054 23.3196 3.78397 23.6411 2.8304 23.8286C2.78754 23.8393 2.74468 23.8446 2.70183 23.8554C2.46611 23.8982 2.23575 23.9357 1.99468 23.9571C1.98397 23.9571 1.9679 23.9625 1.95718 23.9625C1.68397 23.9893 1.41075 24.0054 1.13754 24.0054C0.789326 24.0054 0.478612 23.7964 0.344683 23.475C0.210754 23.1536 0.285754 22.7893 0.526826 22.5429C0.746469 22.3179 0.944683 22.0768 1.13218 21.8196C1.22325 21.6964 1.30897 21.5732 1.38933 21.45L1.4054 21.4232H1.42147Z" fill="#323232"/>
</g>
<defs>
<clipPath id="clip0_907_697">
<rect width="27.4286" height="24" fill="white" transform="translate(0.285645)"/>
</clipPath>
</defs>
</svg>
