<svg width="28" height="24" viewBox="0 0 28 24" fill="none" xmlns="http://www.w3.org/2000/svg">
<g clip-path="url(#clip0_965_5057)">
<path d="M1.1357 21.4232C1.23213 21.2786 1.3232 21.1339 1.40892 20.9893C1.94463 20.1 2.45356 18.9321 2.55535 17.6196C0.948202 15.7929 -1.21975e-05 13.5589 -1.21975e-05 11.1429C-1.21975e-05 4.9875 6.13927 0 13.7143 0C21.2893 0 27.4286 4.9875 27.4286 11.1429C27.4286 17.2982 21.2893 22.2857 13.7143 22.2857C11.7268 22.2857 9.84106 21.9429 8.13749 21.3268C7.49999 21.7929 6.4607 22.4304 5.22856 22.9661C4.41963 23.3196 3.4982 23.6411 2.54463 23.8286C2.50177 23.8393 2.45892 23.8446 2.41606 23.8554C2.18034 23.8982 1.94999 23.9357 1.70892 23.9571C1.6982 23.9571 1.68213 23.9625 1.67142 23.9625C1.3982 23.9893 1.12499 24.0054 0.851774 24.0054C0.503559 24.0054 0.192845 23.7964 0.0589164 23.475C-0.0750122 23.1536 -1.22041e-05 22.7893 0.241059 22.5429C0.460702 22.3179 0.658916 22.0768 0.846416 21.8196C0.937488 21.6964 1.0232 21.5732 1.10356 21.45L1.11963 21.4232H1.1357Z" fill="#DA7659"/>
</g>
<defs>
<clipPath id="clip0_965_5057">
<rect width="27.4286" height="24" fill="white"/>
</clipPath>
</defs>
</svg>
