<svg width="28" height="24" viewBox="0 0 28 24" fill="none" xmlns="http://www.w3.org/2000/svg">
<g clip-path="url(#clip0_907_3313)">
<path d="M6.90714 19.2482C7.59821 18.7446 8.49285 18.6161 9.29642 18.9054C10.7161 19.4196 12.3071 19.7143 14 19.7143C20.6804 19.7143 25.1429 15.4018 25.1429 11.1429C25.1429 6.88393 20.6804 2.57143 14 2.57143C7.31964 2.57143 2.85714 6.88393 2.85714 11.1429C2.85714 12.8571 3.52142 14.5071 4.76964 15.9214C5.23035 16.4411 5.45535 17.1268 5.40178 17.8232C5.32678 18.7929 5.09642 19.6821 4.79642 20.4696C5.70714 20.0464 6.46249 19.575 6.90714 19.2536V19.2482ZM1.42142 21.4232C1.51785 21.2786 1.60892 21.1339 1.69464 20.9893C2.23035 20.1 2.73928 18.9321 2.84107 17.6196C1.23392 15.7929 0.285709 13.5589 0.285709 11.1429C0.285709 4.9875 6.425 0 14 0C21.575 0 27.7143 4.9875 27.7143 11.1429C27.7143 17.2982 21.575 22.2857 14 22.2857C12.0125 22.2857 10.1268 21.9429 8.42321 21.3268C7.78571 21.7929 6.74642 22.4304 5.51428 22.9661C4.70535 23.3196 3.78392 23.6411 2.83035 23.8286C2.78749 23.8393 2.74464 23.8446 2.70178 23.8554C2.46607 23.8982 2.23571 23.9357 1.99464 23.9571C1.98392 23.9571 1.96785 23.9625 1.95714 23.9625C1.68392 23.9893 1.41071 24.0054 1.13749 24.0054C0.78928 24.0054 0.478566 23.7964 0.344637 23.475C0.210709 23.1536 0.285709 22.7893 0.52678 22.5429C0.746423 22.3179 0.944637 22.0768 1.13214 21.8196C1.22321 21.6964 1.30892 21.5732 1.38928 21.45L1.40535 21.4232H1.42142Z" fill="#DA7659"/>
<path d="M6.90714 19.2482C7.59821 18.7446 8.49285 18.6161 9.29642 18.9054C10.7161 19.4196 12.3071 19.7143 14 19.7143C20.6804 19.7143 25.1429 15.4018 25.1429 11.1429C25.1429 6.88393 20.6804 2.57143 14 2.57143C7.31964 2.57143 2.85714 6.88393 2.85714 11.1429C2.85714 12.8571 3.52142 14.5071 4.76964 15.9214C5.23035 16.4411 5.45535 17.1268 5.40178 17.8232C5.32678 18.7929 5.09642 19.6821 4.79642 20.4696C5.70714 20.0464 6.46249 19.575 6.90714 19.2536V19.2482Z" fill="#DA7659"/>
</g>
<defs>
<clipPath id="clip0_907_3313">
<rect width="27.4286" height="24" fill="white" transform="translate(0.285713)"/>
</clipPath>
</defs>
</svg>
