<svg width="36" height="24" viewBox="0 0 36 24" fill="none" xmlns="http://www.w3.org/2000/svg">
<g clip-path="url(#clip0_946_5044)">
<path d="M8.26281 22.755C7.73968 21.9517 7.68342 21.0746 7.71449 20.1428C7.30387 20.1428 6.92246 20.1469 6.54116 20.1421C4.69398 20.119 3.45555 18.8942 3.43151 17.0442C3.4154 15.805 3.42845 14.5653 3.42845 13.2856C3.01582 13.2856 2.63415 13.2918 2.25275 13.2844C1.41399 13.268 0.846803 12.7313 0.861104 11.9758C0.874907 11.2466 1.44638 10.7295 2.26189 10.7153C2.63193 10.7089 3.00218 10.7143 3.4058 10.7143C3.41386 10.5774 3.42719 10.4548 3.42737 10.3322C3.429 9.21794 3.42108 8.1036 3.42997 6.98939C3.44492 5.11624 4.68054 3.87985 6.54954 3.85773C6.91944 3.85335 7.28944 3.85709 7.63667 3.85709C7.72335 3.23593 7.74613 2.61951 7.90447 2.04014C8.16682 1.08017 8.82237 0.449821 9.78449 0.164045C10.6256 -0.0857844 11.4875 -0.0866548 12.3269 0.112715C13.739 0.448137 14.5646 1.59945 14.5694 3.16342C14.5766 5.50624 14.5713 7.8491 14.5713 10.1919C14.5713 10.3477 14.5713 10.5034 14.5713 10.6866C16.8514 10.6866 19.1142 10.6866 21.4283 10.6866C21.4283 10.5421 21.4283 10.3908 21.4283 10.2395C21.4283 7.92519 21.4276 5.61092 21.4285 3.29665C21.4294 1.20749 22.637 -0.0179893 24.7278 0.0124376C25.3306 0.021211 25.9715 0.0776228 26.5248 0.292606C27.7399 0.764672 28.2061 1.79904 28.2826 3.04011C28.2983 3.29443 28.2849 3.55053 28.2849 3.85705C28.6707 3.85705 29.0367 3.85488 29.4026 3.85742C31.3236 3.87076 32.5586 5.10373 32.57 7.02891C32.5771 8.24092 32.5713 9.45302 32.5713 10.7143C32.9734 10.7143 33.354 10.709 33.7344 10.7153C34.5505 10.729 35.1222 11.2445 35.1381 11.9739C35.1545 12.728 34.5857 13.2675 33.7477 13.2844C33.3767 13.2918 33.0055 13.2856 32.5713 13.2856C32.5713 13.4441 32.5731 13.5938 32.571 13.7435C32.5536 15.0136 32.6222 16.2924 32.4958 17.5517C32.3384 19.1192 31.1746 20.0817 29.5871 20.1389C29.174 20.1538 28.7599 20.1411 28.3222 20.1411C28.2872 20.6012 28.2813 21.0544 28.2136 21.4982C28.011 22.8252 27.0997 23.7694 25.764 23.9282C25.0795 24.0095 24.3491 24.0231 23.6829 23.8736C22.2302 23.5475 21.4354 22.4153 21.4304 20.844C21.4226 18.3448 21.4283 15.8455 21.4283 13.316C19.1536 13.316 16.8908 13.316 14.5713 13.316C14.5713 13.4517 14.5713 13.6023 14.5713 13.7529C14.5713 16.0672 14.5722 18.3815 14.571 20.6957C14.5699 22.788 13.363 23.9853 11.2778 24.0057C10.3532 24.0148 9.48248 23.8907 8.7497 23.276C8.57672 23.1309 8.43691 22.9463 8.26281 22.755Z" fill="#DA7659"/>
</g>
<defs>
<clipPath id="clip0_946_5044">
<rect width="34.2857" height="24" fill="white" transform="translate(0.856934)"/>
</clipPath>
</defs>
</svg>
