<svg width="36" height="24" viewBox="0 0 36 24" fill="none" xmlns="http://www.w3.org/2000/svg">
<g clip-path="url(#clip0_907_684)">
<path d="M8.26281 22.7552C7.73968 21.9518 7.68342 21.0748 7.71449 20.1429C7.30387 20.1429 6.92246 20.147 6.54116 20.1422C4.69398 20.1191 3.45555 18.8943 3.43151 17.0443C3.4154 15.8051 3.42845 14.5655 3.42845 13.2857C3.01582 13.2857 2.63415 13.2919 2.25275 13.2845C1.41399 13.2681 0.846803 12.7314 0.861104 11.9759C0.874907 11.2467 1.44638 10.7296 2.26189 10.7155C2.63193 10.7091 3.00218 10.7144 3.4058 10.7144C3.41386 10.5775 3.42719 10.455 3.42737 10.3323C3.429 9.21806 3.42108 8.10372 3.42997 6.98951C3.44492 5.11636 4.68054 3.87997 6.54954 3.85785C6.91944 3.85347 7.28944 3.85722 7.63667 3.85722C7.72335 3.23605 7.74613 2.61963 7.90447 2.04026C8.16682 1.08029 8.82237 0.449943 9.78449 0.164167C10.6256 -0.0856624 11.4875 -0.0865327 12.3269 0.112837C13.739 0.448259 14.5646 1.59958 14.5694 3.16354C14.5766 5.50636 14.5713 7.84922 14.5713 10.1921C14.5713 10.3478 14.5713 10.5035 14.5713 10.6867C16.8514 10.6867 19.1142 10.6867 21.4283 10.6867C21.4283 10.5422 21.4283 10.3909 21.4283 10.2396C21.4283 7.92531 21.4276 5.61104 21.4285 3.29677C21.4294 1.20761 22.637 -0.0178673 24.7278 0.0125597C25.3306 0.021333 25.9715 0.0777449 26.5248 0.292728C27.7399 0.764794 28.2061 1.79916 28.2826 3.04023C28.2983 3.29455 28.2849 3.55066 28.2849 3.85718C28.6707 3.85718 29.0367 3.855 29.4026 3.85754C31.3236 3.87089 32.5586 5.10386 32.57 7.02903C32.5771 8.24105 32.5713 9.45314 32.5713 10.7144C32.9734 10.7144 33.354 10.7091 33.7344 10.7155C34.5505 10.7291 35.1222 11.2446 35.1381 11.974C35.1545 12.7282 34.5857 13.2676 33.7477 13.2845C33.3767 13.2919 33.0055 13.2857 32.5713 13.2857C32.5713 13.4442 32.5731 13.5939 32.571 13.7436C32.5536 15.0137 32.6222 16.2926 32.4958 17.5518C32.3384 19.1194 31.1746 20.0818 29.5871 20.139C29.174 20.1539 28.7599 20.1413 28.3222 20.1413C28.2872 20.6013 28.2813 21.0545 28.2136 21.4983C28.011 22.8254 27.0997 23.7695 25.764 23.9283C25.0795 24.0096 24.3491 24.0233 23.6829 23.8737C22.2302 23.5476 21.4354 22.4154 21.4304 20.8441C21.4226 18.3449 21.4283 15.8456 21.4283 13.3161C19.1536 13.3161 16.8908 13.3161 14.5713 13.3161C14.5713 13.4519 14.5713 13.6025 14.5713 13.7531C14.5713 16.0673 14.5722 18.3816 14.571 20.6959C14.5699 22.7881 13.363 23.9854 11.2778 24.0058C10.3532 24.0149 9.48248 23.8908 8.7497 23.2761C8.57672 23.131 8.43691 22.9464 8.26281 22.7552ZM11.9998 8.61437C11.9998 6.90044 11.9998 5.18652 11.9998 3.47259C11.9998 2.62772 11.944 2.57129 11.1098 2.57155C10.3607 2.57178 10.2856 2.64801 10.2856 3.40976C10.2855 9.13714 10.2856 14.8645 10.2856 20.5919C10.2856 20.6919 10.2845 20.7919 10.286 20.8918C10.2914 21.2364 10.4599 21.4226 10.8113 21.428C10.9398 21.43 11.0684 21.4287 11.1969 21.4286C11.9143 21.4282 11.9997 21.3416 11.9997 20.6119C11.9998 16.6413 11.9998 12.6707 11.9998 8.61437ZM25.7141 4.15777C25.7141 3.92924 25.7141 3.70071 25.7141 3.47218C25.714 2.62794 25.658 2.57129 24.8237 2.57155C24.0751 2.57179 23.9999 2.64819 23.9999 3.41019C23.9998 9.1376 23.9998 14.865 23.9999 20.5924C23.9999 20.7067 23.9956 20.8212 24.002 20.9351C24.0188 21.2375 24.1756 21.4098 24.4833 21.4261C24.6257 21.4336 24.7689 21.4286 24.9117 21.4285C25.6286 21.4283 25.714 21.3415 25.714 20.6113C25.7141 15.1553 25.7141 9.69929 25.7141 4.15777ZM7.71405 13.1572C7.71405 10.923 7.71405 8.68874 7.71405 6.4287C7.34229 6.4287 7.01673 6.42746 6.69118 6.42898C6.12558 6.43163 6.00039 6.55906 6.00024 7.14123C5.99943 10.1939 5.99984 13.2465 5.99989 16.2992C5.9999 16.556 5.99588 16.8128 6.00185 17.0695C6.00836 17.3493 6.14675 17.5467 6.43131 17.5619C6.85187 17.5843 7.27452 17.5676 7.71405 17.5676C7.71405 16.0927 7.71405 14.6678 7.71405 13.1572ZM29.9998 8.10038C29.9997 7.71524 30.0034 7.33003 29.9982 6.94495C29.9942 6.64586 29.8486 6.44753 29.5399 6.43507C29.1316 6.41859 28.7221 6.43102 28.3038 6.43102C28.3038 10.1602 28.3038 13.8477 28.3038 17.5715C28.631 17.5715 28.9412 17.5719 29.2514 17.5714C29.8878 17.5703 29.9994 17.4608 29.9995 16.8304C30.0001 13.949 29.9998 11.0675 29.9998 8.10038Z" fill="#323232"/>
</g>
<defs>
<clipPath id="clip0_907_684">
<rect width="34.2857" height="24" fill="white" transform="translate(0.856934)"/>
</clipPath>
</defs>
</svg>
