<svg width="14" height="16" viewBox="0 0 14 16" fill="none" xmlns="http://www.w3.org/2000/svg">
<g clip-path="url(#clip0_1421_1103)">
<mask id="mask0_1421_1103" style="mask-type:luminance" maskUnits="userSpaceOnUse" x="0" y="0" width="13" height="16">
<path d="M12.9444 0H0.5V16H12.9444V0Z" fill="white"/>
</mask>
<g mask="url(#mask0_1421_1103)">
<path d="M6.31019 16.0127C10.1991 16.0127 12.7975 13.3796 12.7975 9.39816C12.7975 2.78357 7.16667 0 3.18519 0C2.54283 0 2.1493 0.225694 2.1493 0.659721C2.1493 0.827544 2.22454 1.00116 2.375 1.17477C3.2662 2.24537 4.16319 3.53009 4.17477 4.96528C4.17477 5.33565 4.1169 5.67129 3.85648 6.07639L4.2037 6.00693C3.85648 4.93055 2.91898 4.18403 2.17824 4.18403C1.90625 4.18403 1.72685 4.38079 1.72685 4.67014C1.72685 4.8669 1.78472 5.32408 1.78472 5.65394C1.78472 7.41322 0.5 8.33914 0.5 11.0012C0.5 14.0162 2.80324 16.0127 6.31019 16.0127ZM6.37384 15.1099C3.40509 15.1099 1.41435 13.4549 1.41435 11.0012C1.41435 8.52433 2.71643 7.78933 2.71643 5.75231C2.71643 5.46296 2.65857 5.18518 2.60069 4.93055L2.44444 5.19676C3.02894 5.49768 3.54398 6.14584 3.79861 7.1296C3.83333 7.27431 3.90278 7.33796 4.01273 7.33796C4.53935 7.33796 4.98495 6.01274 4.98495 5.05787C4.98495 3.42014 4.26736 1.90972 3.03472 0.665511L2.86111 0.873843C8.16785 0.931716 11.8426 4.49074 11.8426 9.36919C11.8426 12.7951 9.64353 15.1099 6.37384 15.1099ZM6.46065 13.9121C8.19677 13.9121 9.04169 12.6447 9.04169 11.1979C9.04169 9.77428 8.20833 8.20024 6.61692 7.44213C6.55322 7.41322 6.50693 7.45369 6.51849 7.51733C6.65739 8.72687 6.47221 9.82637 6.08449 10.3472C5.89931 9.92474 5.67361 9.55437 5.33796 9.25926C5.28009 9.21873 5.23959 9.23609 5.22801 9.30554C5.10648 10.1273 4.2037 10.5903 4.2037 11.8692C4.2037 13.0961 5.10069 13.9121 6.46065 13.9121Z" fill="black"/>
</g>
</g>
<defs>
<clipPath id="clip0_1421_1103">
<rect width="13" height="16" fill="white" transform="translate(0.5)"/>
</clipPath>
</defs>
</svg>
