<svg width="11" height="16" viewBox="0 0 11 16" fill="none" xmlns="http://www.w3.org/2000/svg">
<g clip-path="url(#clip0_1421_1097)">
<mask id="mask0_1421_1097" style="mask-type:luminance" maskUnits="userSpaceOnUse" x="0" y="0" width="11" height="16">
<path d="M10.2391 0H0.5V16H10.2391V0Z" fill="white"/>
</mask>
<g mask="url(#mask0_1421_1097)">
<path d="M2.78867 15.7366C3.34501 15.7366 3.70531 15.4187 3.69472 14.8729L3.56225 7.22718C3.55695 6.97814 3.65232 6.80859 3.86427 6.7132C4.75972 6.32114 5.12002 5.89723 5.07233 4.71569L4.88688 0.556345C4.87099 0.270225 4.70144 0.100672 4.43121 0.100672C4.16628 0.100672 4.00733 0.275523 4.00733 0.566941L4.05501 4.61501C4.05501 4.85875 3.90136 5.0018 3.67882 5.0018C3.45628 5.0018 3.29733 4.86404 3.29733 4.63091L3.22844 0.445076C3.22315 0.164254 3.05889 0 2.78867 0C2.51844 0 2.35419 0.164254 2.34889 0.445076L2.27471 4.63091C2.27471 4.86404 2.11575 5.0018 1.89322 5.0018C1.67598 5.0018 1.52232 4.85875 1.52232 4.61501L1.56471 0.566941C1.56471 0.275523 1.41105 0.100672 1.14612 0.100672C0.8759 0.100672 0.706348 0.270225 0.690452 0.556345L0.505004 4.71569C0.452018 5.89723 0.817617 6.32114 1.70777 6.7132C1.91971 6.80859 2.02038 6.97814 2.01508 7.22718L1.88262 14.8729C1.87202 15.4187 2.23232 15.7366 2.78867 15.7366ZM8.03422 9.91354L7.87524 14.8094C7.85403 15.4187 8.22493 15.7366 8.77602 15.7366C9.34295 15.7366 9.70321 15.4399 9.70321 14.8994V0.492763C9.70321 0.158956 9.48602 0 9.23698 0C8.98794 0 8.82897 0.137761 8.62236 0.434479C7.52556 1.97105 6.81555 4.80576 6.81555 7.57686V7.95308C6.81555 8.44584 6.98511 8.77437 7.32421 9.00751L7.70037 9.26713C7.93883 9.43668 8.0448 9.63803 8.03422 9.91354Z" fill="black"/>
</g>
</g>
<defs>
<clipPath id="clip0_1421_1097">
<rect width="10" height="16" fill="white" transform="translate(0.5)"/>
</clipPath>
</defs>
</svg>
