<svg width="28" height="24" viewBox="0 0 28 24" fill="none" xmlns="http://www.w3.org/2000/svg">
<g clip-path="url(#clip0_907_3913)">
<path d="M18.725 24.0001C14.9503 24.0001 11.213 24.0078 7.47585 23.9959C6.18036 23.9918 5.04248 23.5899 4.2423 22.5012C3.7051 21.7703 3.50495 20.9251 3.50253 20.0338C3.49523 17.3466 3.49989 14.6592 3.49989 11.9719C3.49989 11.8509 3.49989 11.7299 3.49989 11.5386C3.10341 11.8561 2.76285 12.1401 2.41051 12.4087C1.60526 13.0224 0.769997 12.7561 0.534963 11.8093C0.418163 11.3387 0.638872 10.9842 0.980181 10.6937C2.39751 9.48744 3.81893 8.28595 5.23791 7.08159C7.80983 4.89869 10.3812 2.7152 12.9524 0.531424C13.3512 0.192704 13.7633 -0.130722 14.3297 0.0772645C14.5468 0.156995 14.7559 0.290474 14.9336 0.440899C18.9575 3.84735 22.9776 7.25826 26.9954 10.6718C27.7642 11.3249 27.6222 12.3399 26.7283 12.6888C26.4029 12.8158 26.1051 12.7415 25.843 12.5582C25.4044 12.2515 24.9861 11.9159 24.5001 11.5477C24.5001 11.7187 24.5001 11.8469 24.5001 11.9751C24.5001 14.6624 24.5055 17.3497 24.4972 20.037C24.4943 20.9821 24.2583 21.8603 23.6693 22.6258C23.0782 23.3939 22.2697 23.8038 21.3431 23.9109C20.4908 24.0095 19.6233 23.9756 18.725 24.0001ZM21.287 8.80005C18.8589 6.74384 16.4308 4.68763 14.003 2.63168C13.8664 2.74286 13.7585 2.82751 13.654 2.91615C11.1006 5.08185 8.54944 7.25027 5.99029 9.40916C5.80814 9.56282 5.74439 9.713 5.745 9.94567C5.75273 12.8572 5.75002 15.7688 5.75011 18.6803C5.75012 19.1927 5.73926 19.7053 5.75363 20.2173C5.77567 21.0026 6.22967 21.6526 6.91152 21.7064C7.76293 21.7737 8.62369 21.7226 9.49995 21.7226C9.49995 21.5706 9.49995 21.435 9.49995 21.2994C9.49995 19.1626 9.54047 17.0247 9.48461 14.8893C9.45158 13.6269 10.4095 12.6932 11.6214 12.7362C13.2064 12.7924 14.7963 12.7922 16.3814 12.7364C17.6209 12.6928 18.5423 13.6609 18.5144 14.8544C18.4639 17.0151 18.5001 19.1777 18.5001 21.3395C18.5001 21.4714 18.5001 21.6033 18.5001 21.7434C19.3217 21.7434 20.0952 21.7489 20.8685 21.7388C21.0264 21.7367 21.1934 21.699 21.3394 21.6376C22.0121 21.3545 22.2543 20.8146 22.2528 20.1124C22.2462 17.026 22.2154 13.9388 22.2717 10.8533C22.2879 9.96511 22.1305 9.28111 21.287 8.80005ZM11.7501 21.2565C11.7501 21.4142 11.7501 21.5718 11.7501 21.7282C13.2717 21.7282 14.7507 21.7282 16.2285 21.7282C16.2285 19.478 16.2285 17.2494 16.2285 15.022C14.728 15.022 13.2489 15.022 11.7501 15.022C11.7501 17.09 11.7501 19.1363 11.7501 21.2565Z" fill="black"/>
</g>
<defs>
<clipPath id="clip0_907_3913">
<rect width="27" height="24" fill="white" transform="translate(0.5)"/>
</clipPath>
</defs>
</svg>
