<svg width="27" height="24" viewBox="0 0 27 24" fill="none" xmlns="http://www.w3.org/2000/svg">
<g clip-path="url(#clip0_907_875)">
<path d="M18.225 24C14.4503 24 10.713 24.0077 6.97585 23.9958C5.68036 23.9917 4.54248 23.5898 3.7423 22.5011C3.2051 21.7702 3.00495 20.925 3.00253 20.0338C2.99523 17.3465 2.99989 14.6592 2.99989 11.9719C2.99989 11.8508 2.99989 11.7298 2.99989 11.5386C2.60341 11.856 2.26285 12.1401 1.91051 12.4086C1.10526 13.0224 0.269997 12.756 0.0349627 11.8092C-0.0818374 11.3387 0.138872 10.9842 0.480181 10.6937C1.89751 9.48738 3.31893 8.28589 4.73791 7.08153C7.30983 4.89862 9.88124 2.71513 12.4524 0.531363C12.8512 0.192643 13.2633 -0.130783 13.8297 0.0772034C14.0468 0.156934 14.2559 0.290413 14.4336 0.440838C18.4575 3.84728 22.4776 7.2582 26.4954 10.6717C27.2642 11.3248 27.1222 12.3399 26.2283 12.6887C25.9029 12.8157 25.6051 12.7414 25.343 12.5581C24.9044 12.2514 24.4861 11.9158 24.0001 11.5476C24.0001 11.7186 24.0001 11.8468 24.0001 11.975C24.0001 14.6623 24.0055 17.3497 23.9972 20.0369C23.9943 20.982 23.7583 21.8603 23.1693 22.6258C22.5782 23.3939 21.7697 23.8037 20.8431 23.9109C19.9908 24.0094 19.1233 23.9756 18.225 24Z" fill="#DA7659"/>
</g>
<defs>
<clipPath id="clip0_907_875">
<rect width="27" height="24" fill="white"/>
</clipPath>
</defs>
</svg>
