<svg width="24" height="24" viewBox="0 0 24 24" fill="none" xmlns="http://www.w3.org/2000/svg">
<path d="M0.766832 20.111H22.8863C23.3154 20.111 23.6623 19.4407 23.6623 18.5714C23.6623 17.7382 23.3154 17.0679 22.8863 17.0679H0.766832C0.337771 17.0679 0 17.7382 0 18.5714C0 19.4407 0.337771 20.111 0.766832 20.111Z" fill="#DA7659"/>
<path d="M0.766832 13.0679H22.8863C23.3154 13.0679 23.6623 12.3977 23.6623 11.5464C23.6623 10.6951 23.3154 10.0249 22.8863 10.0249H0.766832C0.337771 10.0249 0 10.6951 0 11.5464C0 12.3977 0.337771 13.0679 0.766832 13.0679Z" fill="#DA7659"/>
<path d="M0.766832 6.0249H22.8863C23.3154 6.0249 23.6623 5.35471 23.6623 4.5215C23.6623 3.67019 23.3154 3 22.8863 3H0.766832C0.337771 3 0 3.67019 0 4.5215C0 5.35471 0.337771 6.0249 0.766832 6.0249Z" fill="#DA7659"/>
</svg>
