<svg width="18" height="14" viewBox="0 0 18 14" fill="none" xmlns="http://www.w3.org/2000/svg">
<g clip-path="url(#clip0_1421_1109)">
<mask id="mask0_1421_1109" style="mask-type:luminance" maskUnits="userSpaceOnUse" x="0" y="0" width="18" height="14">
<path d="M17.2607 0.5H0.5V13.5H17.2607V0.5Z" fill="white"/>
</mask>
<g mask="url(#mask0_1421_1109)">
<path d="M5.57347 13.0292C3.41631 12.1934 1.90574 10.7224 1.04617 8.59078C0.686812 7.69962 0.549001 6.76248 0.495444 5.81059C0.472617 5.40489 0.751718 5.12533 1.173 5.12878C2.75235 5.14169 4.224 5.54054 5.58275 6.35506C6.98324 7.19461 8.02027 8.36085 8.74065 9.81835C8.7742 9.88623 8.81394 9.95106 8.85522 10.0252C8.96404 9.9803 8.98441 9.88389 9.02313 9.80609C10.2507 7.33952 12.2538 5.87777 14.9148 5.28808C15.4476 5.17001 15.9978 5.12134 16.5484 5.12746C17.0574 5.13313 17.2901 5.42931 17.2481 5.93469C17.1917 6.61306 17.1095 7.28364 16.9229 7.93972C16.5869 9.12165 16.0031 10.1645 15.1572 11.0548C13.982 12.2918 12.5521 13.0683 10.8764 13.3963C10.1186 13.5447 9.35326 13.5051 8.58906 13.5204C7.55841 13.541 6.55581 13.4082 5.57347 13.0292ZM4.45885 7.38526C3.69962 6.99327 2.904 6.71867 2.04695 6.62011C2.23263 9.0886 4.66817 11.9857 7.98737 12.049C7.49334 9.98406 6.34656 8.42732 4.45885 7.38526ZM15.5411 7.53882C15.6278 7.25327 15.7155 6.9679 15.7187 6.6626C12.9867 6.87286 10.3071 9.14377 9.79389 12.0443C12.2594 12.0239 14.7197 10.2016 15.5411 7.53882Z" fill="black"/>
<path d="M8.47691 0.619715C8.8239 0.411061 9.10575 0.43231 9.3935 0.714566C10.1668 1.47311 10.7922 2.34264 11.2914 3.3032C11.6023 3.90131 11.836 4.53117 12.0613 5.16505C12.1156 5.31784 12.0884 5.40517 11.9434 5.48013C11.5739 5.67119 11.2408 5.9214 10.861 6.2085C10.4612 4.74961 9.84927 3.44701 8.87802 2.30013C7.91319 3.42685 7.30578 4.72559 6.94656 6.12263C6.84105 6.16692 6.79297 6.11664 6.74719 6.08161C6.43953 5.84626 6.11676 5.63393 5.77491 5.45256C5.65263 5.38767 5.64238 5.31398 5.68143 5.18985C6.19307 3.56354 7.02156 2.12173 8.18423 0.873859C8.26794 0.784019 8.36958 0.710891 8.47691 0.619715Z" fill="black"/>
</g>
</g>
<defs>
<clipPath id="clip0_1421_1109">
<rect width="17" height="14" fill="white" transform="translate(0.5)"/>
</clipPath>
</defs>
</svg>
