<svg width="22" height="24" viewBox="0 0 22 24" fill="none" xmlns="http://www.w3.org/2000/svg">
<g clip-path="url(#clip0_907_701)">
<path d="M14.75 6C14.75 5.00544 14.3549 4.05161 13.6517 3.34835C12.9484 2.64509 11.9946 2.25 11 2.25C10.0054 2.25 9.05161 2.64509 8.34835 3.34835C7.64509 4.05161 7.25 5.00544 7.25 6C7.25 6.99456 7.64509 7.94839 8.34835 8.65165C9.05161 9.35491 10.0054 9.75 11 9.75C11.9946 9.75 12.9484 9.35491 13.6517 8.65165C14.3549 7.94839 14.75 6.99456 14.75 6ZM5 6C5 4.4087 5.63214 2.88258 6.75736 1.75736C7.88258 0.632141 9.4087 0 11 0C12.5913 0 14.1174 0.632141 15.2426 1.75736C16.3679 2.88258 17 4.4087 17 6C17 7.5913 16.3679 9.11742 15.2426 10.2426C14.1174 11.3679 12.5913 12 11 12C9.4087 12 7.88258 11.3679 6.75736 10.2426C5.63214 9.11742 5 7.5913 5 6ZM2.81094 21.75H19.1937C18.7766 18.7828 16.2266 16.5 13.1469 16.5H8.8625C5.78281 16.5 3.23281 18.7828 2.81563 21.75H2.81094ZM0.5 22.6078C0.5 17.9906 4.24063 14.25 8.85781 14.25H13.1422C17.7594 14.25 21.5 17.9906 21.5 22.6078C21.5 23.3766 20.8766 24 20.1078 24H1.89219C1.12344 24 0.5 23.3766 0.5 22.6078Z" fill="#323232"/>
</g>
<defs>
<clipPath id="clip0_907_701">
<rect width="21" height="24" fill="white" transform="translate(0.5)"/>
</clipPath>
</defs>
</svg>
