<svg width="21" height="24" viewBox="0 0 21 24" fill="none" xmlns="http://www.w3.org/2000/svg">
<g clip-path="url(#clip0_965_5055)">
<path d="M4.5 6C4.5 4.4087 5.13214 2.88258 6.25736 1.75736C7.38258 0.632141 8.9087 0 10.5 0C12.0913 0 13.6174 0.632141 14.7426 1.75736C15.8679 2.88258 16.5 4.4087 16.5 6C16.5 7.5913 15.8679 9.11742 14.7426 10.2426C13.6174 11.3679 12.0913 12 10.5 12C8.9087 12 7.38258 11.3679 6.25736 10.2426C5.13214 9.11742 4.5 7.5913 4.5 6ZM0 22.6078C0 17.9906 3.74063 14.25 8.35781 14.25H12.6422C17.2594 14.25 21 17.9906 21 22.6078C21 23.3766 20.3766 24 19.6078 24H1.39219C0.623438 24 0 23.3766 0 22.6078Z" fill="#DA7659"/>
</g>
<defs>
<clipPath id="clip0_965_5055">
<rect width="21" height="24" fill="white"/>
</clipPath>
</defs>
</svg>
