<svg width="24" height="24" viewBox="0 0 24 24" fill="none" xmlns="http://www.w3.org/2000/svg">
<path fill-rule="evenodd" clip-rule="evenodd" d="M21.5294 9.72278L19.9922 9.38861C19.8586 8.97937 19.693 8.5802 19.4976 8.19568L20.3485 6.87198C20.5005 6.63547 20.4671 6.32495 20.2684 6.12628L17.8737 3.73157C17.675 3.5329 17.3645 3.49948 17.128 3.65146L15.8043 4.50244C15.4198 4.30698 15.0206 4.14142 14.6114 4.00775L14.2772 2.47058C14.2176 2.19592 13.9743 2 13.6933 2H10.3067C10.0257 2 9.78244 2.19592 9.72278 2.47058L9.38861 4.00775C8.97937 4.14142 8.5802 4.30698 8.19568 4.50244L6.87198 3.65146C6.63547 3.49948 6.32495 3.5329 6.12628 3.73157L3.73157 6.12628C3.5329 6.32495 3.49948 6.63547 3.65146 6.87198L4.50244 8.19568C4.30698 8.5802 4.14142 8.97937 4.00775 9.38861L2.47058 9.72278C2.19592 9.78259 2 10.0257 2 10.3067V13.6933C2 13.9743 2.19592 14.2174 2.47058 14.2772L4.00775 14.6114C4.14142 15.0206 4.30698 15.4198 4.50244 15.8043L3.65146 17.128C3.49948 17.3645 3.5329 17.675 3.73157 17.8737L6.12628 20.2684C6.32495 20.4671 6.63547 20.5005 6.87198 20.3485L8.19568 19.4976C8.5802 19.693 8.97937 19.8586 9.38861 19.9922L9.72278 21.5294C9.78244 21.8041 10.0257 22 10.3067 22H13.6933C13.9743 22 14.2176 21.8041 14.2772 21.5294L14.6114 19.9922C15.0206 19.8586 15.4198 19.693 15.8043 19.4976L17.128 20.3485C17.3645 20.5005 17.675 20.4673 17.8737 20.2684L20.2684 17.8737C20.4671 17.675 20.5005 17.3645 20.3485 17.128L19.4976 15.8043C19.693 15.4198 19.8586 15.0206 19.9922 14.6114L21.5294 14.2772C21.8041 14.2174 22 13.9743 22 13.6933V10.3067C22 10.0257 21.8041 9.78259 21.5294 9.72278ZM15.5856 11.9997C15.5856 13.9768 13.9771 15.5854 12 15.5854C10.0229 15.5854 8.41431 13.9768 8.41431 11.9997C8.41431 10.0226 10.0229 8.41406 12 8.41406C13.9771 8.41406 15.5856 10.0226 15.5856 11.9997Z" fill="#323232"/>
</svg>
