<svg width="16" height="22" viewBox="0 0 16 22" fill="none" xmlns="http://www.w3.org/2000/svg">
<path d="M2.38667 21.4203H12.5726C14.0984 21.4203 14.9593 20.5424 14.9593 18.9059V11.1491C14.9593 9.51255 14.0984 8.63463 12.5726 8.63463H2.38667C0.852382 8.63463 0 9.51255 0 11.1491V18.9059C0 20.5424 0.852382 21.4203 2.38667 21.4203ZM2.42077 19.9969C1.86672 19.9969 1.51724 19.6219 1.51724 18.9996V11.0468C1.51724 10.4247 1.86672 10.0581 2.42077 10.0581H12.5471C13.1011 10.0581 13.4335 10.4247 13.4335 11.0468V18.9996C13.4335 19.6219 13.1011 19.9969 12.5471 19.9969H2.42077ZM1.95196 9.35064H3.45215V5.87292C3.45215 3.03448 5.25067 1.42348 7.47539 1.42348C9.70012 1.42348 11.5157 3.03448 11.5157 5.87292V9.35064H13.0159V6.04339C13.0159 2.07981 10.4247 0 7.47539 0C4.53467 0 1.95196 2.07981 1.95196 6.04339V9.35064Z" fill="#DA7659"/>
</svg>
