<svg width="211" height="220" viewBox="0 0 211 220" fill="none" xmlns="http://www.w3.org/2000/svg">
<path d="M27.2098 219.907H180.345C198.826 219.907 207.556 214.149 207.556 201.705C207.556 170.409 168.088 125.462 103.731 125.462C39.4681 125.462 0 170.409 0 201.705C0 214.149 8.72941 219.907 27.2098 219.907ZM22.6593 204.398C18.1089 204.398 16.4373 203.191 16.4373 199.847C16.4373 178.21 47.9189 141.064 103.731 141.064C159.637 141.064 191.119 178.21 191.119 199.847C191.119 203.191 189.447 204.398 184.897 204.398H22.6593ZM103.917 109.675C132.055 109.675 154.715 84.8796 154.715 54.1409C154.715 23.9594 132.055 0 103.917 0C75.8716 0 53.0265 24.3309 53.0265 54.3266C53.0265 84.9725 75.7787 109.675 103.917 109.675ZM103.917 94.1661C85.0653 94.1661 69.4638 76.7074 69.4638 54.3266C69.4638 32.5959 84.9725 15.5086 103.917 15.5086C122.862 15.5086 138.277 32.3174 138.277 54.1409C138.277 76.5217 122.769 94.1661 103.917 94.1661Z" fill="#DA7659"/>
</svg>
